IKResults
version=1
nRows=11
nColumns=40
inDegrees=yes

Units are S.I. units (second, meters, Newtons, ...)
Angles are in degrees.

endheader
time	pelvis_tilt	pelvis_list	pelvis_rotation	pelvis_tx	pelvis_ty	pelvis_tz	hip_flexion_r	hip_adduction_r	hip_rotation_r	knee_angle_r	knee_angle_r_beta	ankle_angle_r	subtalar_angle_r	mtp_angle_r	hip_flexion_l	hip_adduction_l	hip_rotation_l	knee_angle_l	knee_angle_l_beta	ankle_angle_l	subtalar_angle_l	mtp_angle_l	lumbar_extension	lumbar_bending	lumbar_rotation	arm_flex_r	arm_add_r	arm_rot_r	elbow_flex_r	pro_sup_r	wrist_flex_r	wrist_dev_r	arm_flex_l	arm_add_l	arm_rot_l	elbow_flex_l	pro_sup_l	wrist_flex_l	wrist_dev_l
      0.52000000	     12.39390663	     -3.02016506	      7.27654222	     -0.36439594	      0.90955899	     -1.47192329	     15.40657327	      0.52438887	    -28.53013718	    -19.10461022	     -0.33343835	      4.14955482	      9.72550322	    -13.60391659	    -28.92879335	      5.82490027	      2.78904726	    -22.82104705	     -0.39830241	     12.68264931	      1.99391249	     -8.91146690	    -19.26547179	      5.54173438	     -9.88867873	    -15.21439576	    -11.12702967	     -8.56710419	     14.47110759	     89.95437384	      0.00000000	      0.00000000	     13.05507529	     14.54618886	      8.70644655	     55.75352405	     89.95437384	      0.00000000	      0.00000000
      0.53000000	     12.32675829	     -3.07971707	      7.72104732	     -0.34708336	      0.90946564	     -1.47214481	     15.25816097	      0.89672819	    -26.98199035	    -20.43604837	     -0.35667633	      3.46242334	      4.81583747	    -12.26088452	    -29.03380490	      6.07413525	      1.22005922	    -24.19697145	     -0.42231682	     10.66467869	      3.61172377	     -8.48163281	    -18.84180432	      5.72840508	    -10.55813031	    -14.89665579	    -11.16459012	     -8.65501134	     13.32339906	     89.95437384	      0.00000000	      0.00000000	     12.15998995	     14.38507613	      9.43242000	     56.96557924	     89.95437384	      0.00000000	      0.00000000
      0.54000000	     12.33016982	     -3.22729065	      7.67838989	     -0.32945845	      0.90984125	     -1.47199408	     15.25542399	      1.03497478	    -26.56853974	    -22.10187606	     -0.38575051	      1.20206922	      2.37339691	    -11.17519552	    -29.05964084	      6.28430670	      0.75248120	    -25.90869025	     -0.45219195	      8.03709757	      4.53418026	     -8.00699482	    -18.48453378	      5.94460609	    -10.37075922	    -15.18223389	    -11.30075072	     -8.58712757	     13.14933826	     89.95437384	      0.00000000	      0.00000000	     11.69673754	     14.04201075	      9.54376294	     57.24518508	     89.95437384	      0.00000000	      0.00000000
      0.55000000	     12.42884870	     -3.62496072	      7.77333948	     -0.31217318	      0.91105686	     -1.47159264	     14.97095325	      1.67156440	    -24.89806485	    -23.10691523	     -0.40329175	      0.23978774	     -0.21561574	    -10.35639013	    -28.93925165	      6.69372045	     -0.22273342	    -27.83139004	     -0.48574939	      4.92279359	      6.01891356	     -7.48764539	    -18.24007674	      6.43573761	    -10.30325158	    -15.08327701	    -11.40249296	     -8.51906860	     12.59971080	     89.95437384	      0.00000000	      0.00000000	     11.22373586	     13.61427657	      9.92214309	     57.26826593	     89.95437384	      0.00000000	      0.00000000
      0.56000000	     12.51338721	     -4.31924935	      7.23203660	     -0.29470473	      0.91289154	     -1.47003117	     14.43805256	      3.36583805	    -21.07992650	    -23.36629353	     -0.40781876	     -1.40693164	     -6.57731489	     -8.64165383	    -28.80019620	      7.06187475	     -0.53010045	    -29.80995049	     -0.52028179	      1.99679960	      8.03841496	     -6.99579021	    -18.03320925	      7.05571320	     -9.49403586	    -15.01750851	    -11.56192934	     -8.53457594	     12.26973282	     89.95437384	      0.00000000	      0.00000000	     10.68151091	     13.05350428	     10.34580013	     57.06541405	     89.95437384	      0.00000000	      0.00000000
      0.57000000	     12.85724973	     -4.73087948	      7.12048461	     -0.27682332	      0.91532285	     -1.46951304	     13.65898310	      3.82372280	    -20.68719835	    -24.75107788	     -0.43198780	     -1.51443193	     -6.87311223	     -8.26833837	    -28.48274692	      7.51865143	     -0.47740664	    -32.24786332	     -0.56283139	     -2.45889755	      8.78538510	     -6.49972173	    -18.02927589	      7.53326361	     -9.10166429	    -14.98670155	    -11.72302969	     -8.30381209	     12.02721269	     89.95437384	      0.00000000	      0.00000000	     10.17167302	     12.46935131	     10.72807454	     56.51175517	     89.95437384	      0.00000000	      0.00000000
      0.58000000	     13.32870736	     -5.18857925	      7.01838390	     -0.25909232	      0.91827743	     -1.46879936	     12.40055361	      4.52328537	    -20.21763342	    -25.47731376	     -0.44466301	     -1.10382687	     -6.92189584	     -8.00186922	    -28.09953169	      8.02277059	     -0.56962692	    -34.75838829	     -0.60664832	     -6.17698386	      9.56205707	     -6.09273555	    -18.18788789	      8.05372998	     -8.68838834	    -14.85417378	    -11.85557884	     -8.08904899	     11.90461382	     89.95437384	      0.00000000	      0.00000000	      9.65349006	     11.87820202	     11.16261692	     55.78335114	     89.95437384	      0.00000000	      0.00000000
      0.59000000	     14.00340588	     -6.07205632	      7.16048892	     -0.24131108	      0.92168913	     -1.46814742	     10.49390196	      5.98641745	    -19.58772568	    -25.09819317	     -0.43804611	     -0.99620210	     -7.08384041	     -7.17997542	    -27.65684319	      9.20650198	     -0.33558654	    -37.41601852	     -0.65303272	     -9.53422923	      9.92879661	     -5.77238662	    -18.52860137	      9.10716050	     -8.36885768	    -14.74862300	    -12.10482239	     -7.62717316	     12.06608540	     89.95437384	      0.00000000	      0.00000000	      9.01377078	     11.22423754	     11.68494550	     55.02532696	     89.95437384	      0.00000000	      0.00000000
      0.60000000	     14.47558962	     -6.15900341	      7.13269360	     -0.22441445	      0.92480369	     -1.46781960	      8.96764201	      6.43698919	    -18.89962759	    -25.30718059	     -0.44169363	     -0.32407436	     -6.82488970	     -6.98152046	    -26.72944088	      9.36351955	     -0.62291599	    -40.32226861	     -0.70375635	    -12.74504682	     10.20232855	     -5.50379079	    -18.80642320	      9.26684776	     -8.06018502	    -14.55641811	    -12.22992422	     -7.44085683	     12.34568414	     89.95437384	      0.00000000	      0.00000000	      8.63370145	     10.67170995	     12.00343041	     53.82368774	     89.95437384	      0.00000000	      0.00000000
      0.61000000	     14.93059005	     -6.48550353	      7.22634243	     -0.20765113	      0.92790195	     -1.46723229	      7.22849195	      7.22409741	    -18.52263966	    -24.97289437	     -0.43585923	      0.44458402	     -6.91852953	     -6.75167596	    -25.52526629	      9.80672648	     -1.05479894	    -43.25613663	     -0.75496201	    -16.98133311	     10.86920277	     -5.24921010	    -19.06954796	      9.67217858	     -7.70356145	    -14.36357405	    -12.31753978	     -7.25732738	     12.71594271	     89.95437384	      0.00000000	      0.00000000	      8.19913715	     10.12043456	     12.31014667	     52.64862661	     89.95437384	      0.00000000	      0.00000000
      0.62000000	     15.39608011	     -6.56424691	      7.32419250	     -0.19156203	      0.93096248	     -1.46664049	      5.41076312	      7.76498995	    -18.06560873	    -24.53712305	     -0.42825359	      1.08674636	     -7.01391620	     -6.54475789	    -24.16757779	     10.00550282	     -1.49996865	    -46.20411458	     -0.80641393	    -19.94185624	     11.76827344	     -5.07405491	    -19.45368150	      9.79400503	     -7.43169277	    -14.08506718	    -12.36064064	     -7.08127167	     13.30917337	     89.95437384	      0.00000000	      0.00000000	      7.84041697	      9.67709698	     12.54218013	     51.30462443	     89.95437384	      0.00000000	      0.00000000
